<svg width="1026" height="558" viewBox="0 0 1026 558" fill="none" xmlns="http://www.w3.org/2000/svg">
<circle cx="180.668" cy="80" r="15" fill="#3f495d"/>
<circle cx="512.668" cy="80" r="15" fill="#3f495d"/>
<circle cx="844.668" cy="80" r="15" fill="#3f495d"/>
<circle cx="678.668" cy="491" r="15" fill="#3f495d"/>
<circle cx="1010.67" cy="491" r="15" fill="#3f495d"/>
<circle cx="1010.67" cy="491" r="15" transform="rotate(180 1010.67 491)" fill="#3f495d"/>
<circle cx="845" cy="491" r="15" transform="rotate(180 845 491)" fill="#3f495d"/>
<circle cx="678.668" cy="491" r="15" transform="rotate(180 678.668 491)" fill="#3f495d"/>
<circle cx="346.668" cy="491" r="15" transform="rotate(180 346.668 491)" fill="#3f495d"/>
<circle cx="15" cy="491" r="15" transform="rotate(180 15 491)" fill="#3f495d"/>
<circle cx="512.668" cy="80" r="15" transform="rotate(180 512.668 80)" fill="#3f495d"/>
<circle cx="181" cy="80" r="15" transform="rotate(180 181 80)" fill="#3f495d"/>
<circle cx="180.668" cy="80" r="15" transform="rotate(180 180.668 80)" fill="#3f495d"/>
<circle cx="15" cy="80" r="15" transform="rotate(180 15 80)" fill="#3f495d"/>
<circle cx="1011" cy="80" r="15" transform="rotate(180 1011 80)" fill="#3f495d"/>
<circle cx="678" cy="80" r="15" transform="rotate(180 678 80)" fill="#3f495d"/>
<path d="M180.668 80L346.668 491" stroke="#3f495d" stroke-width="5"/>
<path d="M512.668 80L346.668 491" stroke="#3f495d" stroke-width="5"/>
<path d="M181 80L15 491" stroke="#3f495d" stroke-width="5"/>
<path d="M346.668 80L180.668 491" stroke="#3f495d" stroke-width="5"/>
<path d="M678.668 80L512.668 491" stroke="#3f495d" stroke-width="5"/>
<path d="M1010.67 80L844.668 491" stroke="#3f495d" stroke-width="5"/>
<path d="M844.668 80L678.668 491" stroke="#3f495d" stroke-width="5"/>
<path d="M512.668 80L678.668 491" stroke="#3f495d" stroke-width="5"/>
<path d="M844.668 80L1010.67 491" stroke="#3f495d" stroke-width="5"/>
<path d="M679 80L845 491" stroke="#3f495d" stroke-width="5"/>
<path d="M513.332 80L679.332 491" stroke="#3f495d" stroke-width="5"/>
<path d="M347.664 80L513.664 491" stroke="#3f495d" stroke-width="5"/>
<path d="M181.996 80L347.996 491" stroke="#3f495d" stroke-width="5"/>
<path d="M16.3281 80L182.328 491" stroke="#3f495d" stroke-width="5"/>
<path d="M15 80L181 491" stroke="#3f495d" stroke-width="5"/>
<path d="M15 80L1011 80.0001" stroke="#3f495d" stroke-width="5"/>
<path d="M15 491L1011 491" stroke="#3f495d" stroke-width="5"/>
<path fill-rule="evenodd" clip-rule="evenodd" d="M331.009 2.06373C322.787 5.79207 318.02 12.9209 311.582 31.1123C308.538 39.7137 298.623 65.6119 289.545 88.6638C280.468 111.716 263.623 154.504 252.112 183.749C240.6 212.994 215.581 276.332 196.514 324.5C134.906 480.125 128.577 508.363 127.428 519.25C126.705 526.09 130.288 537.542 135.263 544.29C137.389 547.173 142.189 550.526 147.917 553.128L157.148 557.322L336.247 557.322C540.369 557.05 594.401 556.452 599.258 554.41C605.656 551.719 609.754 547.845 614.077 540.4C619.866 530.426 629.99 505.142 632.023 495.578C633.52 488.533 633.35 487.744 629.36 483.311C622.319 475.489 621.916 475.457 540.076 476.296C499.795 476.709 417.321 477.197 356.802 477.378L255.022 477.459L249.547 474.331C246.534 472.611 243.174 469.735 242.079 467.938C240.101 464.694 234.544 467.941 244.451 441.968C249.935 427.594 268.705 380.644 286.163 337.637C303.62 294.63 327.852 233.544 340.01 201.89C352.168 170.237 377.223 116.98 388.836 87.7348C413.572 25.4402 416.125 17.6145 414.384 9.41838C413.325 4.43141 413.007 4.98943 407.401 2.46467C401.468 -0.207727 391.956 1.12538 365.465 0.40724C338.285 -0.330922 336.051 -0.223319 331.009 2.06373Z" fill="#FF931E"/>
<path fill-rule="evenodd" clip-rule="evenodd" d="M514.173 13.3547C505.625 13.6939 497.685 14.4622 496.529 15.062C487.005 19.9985 482.515 27.7425 469.765 61.2294C464.69 74.5583 454.982 98.5502 448.192 114.545C441.402 130.539 430.93 156.44 424.921 172.101C418.913 187.763 409.6 211.209 404.226 224.205C393.834 249.336 385.463 270.607 377.048 293.272C374.202 300.936 367.637 317.295 362.459 329.624C325.423 417.801 324.335 422.073 337.231 428.73C343.487 431.958 344.011 432.013 368.288 432.013C395.657 432.013 396.409 431.841 404.649 423.666C407.988 420.352 410.437 415.741 416.726 400.921C433.918 360.406 457.1 303.836 484.922 234.504C500.969 194.518 516.473 156.425 519.376 149.854C522.28 143.283 525.082 136.076 525.603 133.836C527.196 126.978 529.742 130.116 533.424 143.478C535.283 150.224 539.264 162.559 542.27 170.889C558.228 215.107 598.841 335.201 640.818 462.306C666.427 539.846 666.89 541.135 671.411 547.432C679.136 558.193 705.918 560.247 722.279 551.333C728.037 548.196 729.102 547.04 733.061 539.614C735.477 535.082 739.138 526.739 741.197 521.074C743.256 515.41 761.481 469.334 781.696 418.685C801.911 368.035 826.6 305.874 836.561 280.549C846.523 255.225 860.424 220.327 867.455 203C874.485 185.672 890.27 146.14 902.534 115.151C914.797 84.1611 927.216 53.4297 930.13 46.8585C936.896 31.6031 938.032 26.6714 935.718 22.594C931.733 15.5697 929.962 15.2353 894.507 14.7893C862.992 14.3919 861.818 14.4609 858.074 16.9159C852.409 20.631 846.498 31.9084 839.678 52.0156C832.562 72.9915 836.627 62.6023 786.77 187.248C751.963 274.27 733.602 321.763 715.338 372.031C713.279 377.695 711.278 382.584 710.889 382.894C707.895 385.291 702.391 371.267 699.731 354.464C698.215 344.89 689.403 317.016 666.592 249.651C660.161 230.657 651.097 202.848 646.451 187.853C628.958 131.394 595.266 33.6194 590.666 25.9613C586.075 18.3203 577.969 14.4198 565.511 13.8587C544.389 12.9076 529.185 12.7573 514.173 13.3547Z" fill="#FF931E"/>
</svg>
