<svg width="1091" height="761" viewBox="0 0 1091 761" fill="none" xmlns="http://www.w3.org/2000/svg">
<path d="M9.2839 722V604.567H30.7835V700.338H126.554V722H9.2839ZM157.712 722C153.586 722 149.84 720.968 146.473 718.905C143.107 716.842 140.393 714.128 138.33 710.762C136.267 707.395 135.235 703.649 135.235 699.523V650.009C135.235 645.883 136.267 642.137 138.33 638.771C140.393 635.405 143.107 632.69 146.473 630.627C149.84 628.564 153.586 627.532 157.712 627.532H208.692C212.818 627.532 216.564 628.564 219.93 630.627C223.405 632.69 226.12 635.405 228.074 638.771C230.137 642.137 231.169 645.883 231.169 650.009V699.523C231.169 703.649 230.137 707.395 228.074 710.762C226.12 714.128 223.459 716.842 220.093 718.905C216.727 720.968 212.927 722 208.692 722H157.712ZM158.526 700.663H207.877C208.42 700.663 208.855 700.5 209.18 700.175C209.615 699.74 209.832 699.252 209.832 698.709V650.823C209.832 650.28 209.615 649.846 209.18 649.52C208.855 649.086 208.42 648.869 207.877 648.869H158.526C157.983 648.869 157.495 649.086 157.06 649.52C156.735 649.846 156.572 650.28 156.572 650.823V698.709C156.572 699.252 156.735 699.74 157.06 700.175C157.495 700.5 157.983 700.663 158.526 700.663ZM262.177 759.298V737.799H319.021C319.564 737.799 319.998 737.582 320.324 737.147C320.758 736.822 320.975 736.387 320.975 735.844V722H268.855C264.838 722 261.092 720.968 257.617 718.905C254.251 716.842 251.536 714.128 249.473 710.762C247.41 707.395 246.378 703.649 246.378 699.523V650.009C246.378 645.883 247.41 642.137 249.473 638.771C251.536 635.405 254.251 632.69 257.617 630.627C261.092 628.564 264.838 627.532 268.855 627.532H319.998C324.124 627.532 327.87 628.564 331.237 630.627C334.603 632.69 337.263 635.405 339.217 638.771C341.281 642.137 342.312 645.883 342.312 650.009V736.822C342.312 741.056 341.335 744.857 339.38 748.223C337.426 751.589 334.711 754.249 331.237 756.204C327.87 758.267 324.124 759.298 319.998 759.298H262.177ZM269.67 700.663H319.021C319.564 700.663 319.998 700.5 320.324 700.175C320.758 699.74 320.975 699.252 320.975 698.709V650.823C320.975 650.28 320.758 649.846 320.324 649.52C319.998 649.086 319.564 648.869 319.021 648.869H269.67C269.127 648.869 268.638 649.086 268.204 649.52C267.878 649.846 267.715 650.28 267.715 650.823V698.709C267.715 699.252 267.878 699.74 268.204 700.175C268.638 700.5 269.127 700.663 269.67 700.663ZM359.352 722V627.532H380.688V722H359.352ZM359.352 618.085V596.586H380.688V618.085H359.352ZM418.249 722C414.123 722 410.377 720.968 407.011 718.905C403.644 716.842 400.93 714.128 398.867 710.762C396.804 707.395 395.772 703.649 395.772 699.523V650.009C395.772 645.883 396.804 642.137 398.867 638.771C400.93 635.405 403.644 632.69 407.011 630.627C410.377 628.564 414.123 627.532 418.249 627.532H491.543V648.869H419.063C418.52 648.869 418.032 649.086 417.597 649.52C417.272 649.846 417.109 650.28 417.109 650.823V698.709C417.109 699.252 417.272 699.74 417.597 700.175C418.032 700.5 418.52 700.663 419.063 700.663H491.706V722H418.249Z" fill="#FF931E"/>
<path d="M522.271 722V604.73H545.888L617.879 690.402V604.73H639.542V722H615.925L543.771 636.165V722H522.271ZM679.451 722C675.325 722 671.579 720.968 668.213 718.905C664.847 716.842 662.132 714.128 660.069 710.762C658.006 707.395 656.975 703.649 656.975 699.523V650.009C656.975 645.883 658.006 642.137 660.069 638.771C662.132 635.405 664.847 632.69 668.213 630.627C671.579 628.564 675.325 627.532 679.451 627.532H730.431C734.558 627.532 738.304 628.564 741.67 630.627C745.144 632.69 747.859 635.405 749.814 638.771C751.877 642.137 752.908 645.883 752.908 650.009V699.523C752.908 703.649 751.877 707.395 749.814 710.762C747.859 714.128 745.199 716.842 741.833 718.905C738.467 720.968 734.666 722 730.431 722H679.451ZM680.266 700.663H729.617C730.16 700.663 730.594 700.5 730.92 700.175C731.354 699.74 731.572 699.252 731.572 698.709V650.823C731.572 650.28 731.354 649.846 730.92 649.52C730.594 649.086 730.16 648.869 729.617 648.869H680.266C679.723 648.869 679.234 649.086 678.8 649.52C678.474 649.846 678.311 650.28 678.311 650.823V698.709C678.311 699.252 678.474 699.74 678.8 700.175C679.234 700.5 679.723 700.663 680.266 700.663ZM787.663 722C783.428 722 779.628 720.968 776.262 718.905C772.896 716.842 770.181 714.128 768.118 710.762C766.163 707.395 765.186 703.649 765.186 699.523V650.009C765.186 645.883 766.163 642.137 768.118 638.771C770.181 635.405 772.896 632.69 776.262 630.627C779.628 628.564 783.428 627.532 787.663 627.532H839.946V596.586H861.283V722H787.663ZM788.64 700.663H837.992C838.534 700.663 838.969 700.5 839.295 700.175C839.729 699.74 839.946 699.252 839.946 698.709V650.823C839.946 650.28 839.729 649.846 839.295 649.52C838.969 649.086 838.534 648.869 837.992 648.869H788.64C788.097 648.869 787.609 649.086 787.174 649.52C786.849 649.846 786.686 650.28 786.686 650.823V698.709C786.686 699.252 786.849 699.74 787.174 700.175C787.609 700.5 788.097 700.663 788.64 700.663ZM897.361 722C893.235 722 889.489 720.968 886.123 718.905C882.756 716.842 880.042 714.128 877.979 710.762C875.916 707.395 874.884 703.649 874.884 699.523V650.009C874.884 645.883 875.916 642.137 877.979 638.771C880.042 635.405 882.756 632.69 886.123 630.627C889.489 628.564 893.235 627.532 897.361 627.532H948.341C952.467 627.532 956.213 628.564 959.579 630.627C963.054 632.69 965.769 635.405 967.723 638.771C969.786 642.137 970.818 645.883 970.818 650.009V685.516H896.221V698.709C896.221 699.252 896.384 699.74 896.709 700.175C897.144 700.5 897.632 700.663 898.175 700.663H970.818V722H897.361ZM896.221 666.297H949.481V650.823C949.481 650.28 949.264 649.846 948.83 649.52C948.504 649.086 948.07 648.869 947.527 648.869H898.175C897.632 648.869 897.144 649.086 896.709 649.52C896.384 649.846 896.221 650.28 896.221 650.823V666.297ZM1008.53 722C1004.4 722 1000.66 720.968 997.293 718.905C993.927 716.842 991.212 714.128 989.149 710.762C987.086 707.395 986.054 703.649 986.054 699.523V695.94H1007.39V698.709C1007.39 699.252 1007.55 699.74 1007.88 700.175C1008.31 700.5 1008.8 700.663 1009.35 700.663H1058.7C1059.24 700.663 1059.67 700.5 1060 700.175C1060.43 699.74 1060.65 699.252 1060.65 698.709V687.47C1060.65 686.927 1060.43 686.493 1060 686.167C1059.67 685.733 1059.24 685.516 1058.7 685.516H1008.53C1004.4 685.516 1000.66 684.484 997.293 682.421C993.927 680.358 991.212 677.644 989.149 674.277C987.086 670.911 986.054 667.165 986.054 663.039V650.009C986.054 645.883 987.086 642.137 989.149 638.771C991.212 635.405 993.927 632.69 997.293 630.627C1000.66 628.564 1004.4 627.532 1008.53 627.532H1059.51C1063.75 627.532 1067.55 628.564 1070.91 630.627C1074.28 632.69 1076.99 635.405 1079.06 638.771C1081.12 642.137 1082.15 645.883 1082.15 650.009V653.592H1060.65V650.823C1060.65 650.28 1060.43 649.846 1060 649.52C1059.67 649.086 1059.24 648.869 1058.7 648.869H1009.35C1008.8 648.869 1008.31 649.086 1007.88 649.52C1007.55 649.846 1007.39 650.28 1007.39 650.823V662.062C1007.39 662.605 1007.55 663.093 1007.88 663.528C1008.31 663.853 1008.8 664.016 1009.35 664.016H1059.51C1063.75 664.016 1067.55 665.048 1070.91 667.111C1074.28 669.174 1076.99 671.889 1079.06 675.255C1081.12 678.621 1082.15 682.367 1082.15 686.493V699.523C1082.15 703.649 1081.12 707.395 1079.06 710.762C1076.99 714.128 1074.28 716.842 1070.91 718.905C1067.55 720.968 1063.75 722 1059.51 722H1008.53Z" fill="#FF931E"/>
<circle cx="227.668" cy="80" r="15" fill="#f2f9ff"/>
<circle cx="559.668" cy="80" r="15" fill="#f2f9ff"/>
<circle cx="891.668" cy="80" r="15" fill="#f2f9ff"/>
<circle cx="725.668" cy="491" r="15" fill="#f2f9ff"/>
<circle cx="1057.67" cy="491" r="15" fill="#f2f9ff"/>
<circle cx="1057.67" cy="491" r="15" transform="rotate(180 1057.67 491)" fill="#f2f9ff"/>
<circle cx="892" cy="491" r="15" transform="rotate(180 892 491)" fill="#f2f9ff"/>
<circle cx="725.668" cy="491" r="15" transform="rotate(180 725.668 491)" fill="#f2f9ff"/>
<circle cx="393.668" cy="491" r="15" transform="rotate(180 393.668 491)" fill="#f2f9ff"/>
<circle cx="62" cy="491" r="15" transform="rotate(180 62 491)" fill="#f2f9ff"/>
<circle cx="559.668" cy="80" r="15" transform="rotate(180 559.668 80)" fill="#f2f9ff"/>
<circle cx="228" cy="80" r="15" transform="rotate(180 228 80)" fill="#f2f9ff"/>
<circle cx="227.668" cy="80" r="15" transform="rotate(180 227.668 80)" fill="#f2f9ff"/>
<circle cx="62" cy="80" r="15" transform="rotate(180 62 80)" fill="#f2f9ff"/>
<circle cx="1058" cy="80" r="15" transform="rotate(180 1058 80)" fill="#f2f9ff"/>
<circle cx="725" cy="80" r="15" transform="rotate(180 725 80)" fill="#f2f9ff"/>
<path d="M227.668 80L393.668 491" stroke="#f2f9ff" stroke-width="5"/>
<path d="M559.668 80L393.668 491" stroke="#f2f9ff" stroke-width="5"/>
<path d="M228 80L62 491" stroke="#f2f9ff" stroke-width="5"/>
<path d="M393.668 80L227.668 491" stroke="#f2f9ff" stroke-width="5"/>
<path d="M725.668 80L559.668 491" stroke="#f2f9ff" stroke-width="5"/>
<path d="M1057.67 80L891.668 491" stroke="#f2f9ff" stroke-width="5"/>
<path d="M891.668 80L725.668 491" stroke="#f2f9ff" stroke-width="5"/>
<path d="M559.668 80L725.668 491" stroke="#f2f9ff" stroke-width="5"/>
<path d="M891.668 80L1057.67 491" stroke="#f2f9ff" stroke-width="5"/>
<path d="M726 80L892 491" stroke="#f2f9ff" stroke-width="5"/>
<path d="M560.332 80L726.332 491" stroke="#f2f9ff" stroke-width="5"/>
<path d="M394.664 80L560.664 491" stroke="#f2f9ff" stroke-width="5"/>
<path d="M228.996 80L394.996 491" stroke="#f2f9ff" stroke-width="5"/>
<path d="M63.3281 80L229.328 491" stroke="#f2f9ff" stroke-width="5"/>
<path d="M62 80L228 491" stroke="#f2f9ff" stroke-width="5"/>
<path d="M62 80L1058 80.0001" stroke="#f2f9ff" stroke-width="5"/>
<path d="M62 491L1058 491" stroke="#f2f9ff" stroke-width="5"/>
<path fill-rule="evenodd" clip-rule="evenodd" d="M378.009 2.06373C369.787 5.79207 365.02 12.9209 358.582 31.1123C355.538 39.7137 345.623 65.6119 336.545 88.6638C327.468 111.716 310.623 154.504 299.112 183.749C287.6 212.994 262.581 276.332 243.514 324.5C181.906 480.125 175.577 508.363 174.428 519.25C173.705 526.09 177.288 537.542 182.263 544.29C184.389 547.173 189.189 550.526 194.917 553.128L204.148 557.322L383.247 557.322C587.369 557.05 641.401 556.452 646.258 554.41C652.656 551.719 656.754 547.845 661.077 540.4C666.866 530.426 676.99 505.142 679.023 495.578C680.52 488.533 680.35 487.744 676.36 483.311C669.319 475.489 668.916 475.457 587.076 476.296C546.795 476.709 464.321 477.197 403.802 477.378L302.022 477.459L296.547 474.331C293.534 472.611 290.174 469.735 289.079 467.938C287.101 464.694 281.544 467.941 291.451 441.968C296.935 427.594 315.705 380.644 333.163 337.637C350.62 294.63 374.852 233.544 387.01 201.89C399.168 170.237 424.223 116.98 435.836 87.7348C460.572 25.4402 463.125 17.6145 461.384 9.41838C460.325 4.43141 460.007 4.98943 454.401 2.46467C448.468 -0.207727 438.956 1.12538 412.465 0.40724C385.285 -0.330922 383.051 -0.223319 378.009 2.06373Z" fill="#FF931E"/>
<path fill-rule="evenodd" clip-rule="evenodd" d="M561.173 13.3547C552.625 13.6939 544.685 14.4622 543.529 15.062C534.005 19.9985 529.515 27.7425 516.765 61.2294C511.69 74.5583 501.982 98.5502 495.192 114.545C488.402 130.539 477.93 156.44 471.921 172.101C465.913 187.763 456.6 211.209 451.226 224.205C440.834 249.336 432.463 270.607 424.048 293.272C421.202 300.936 414.637 317.295 409.459 329.624C372.423 417.801 371.335 422.073 384.231 428.73C390.487 431.958 391.011 432.013 415.288 432.013C442.657 432.013 443.409 431.841 451.649 423.666C454.988 420.352 457.437 415.741 463.726 400.921C480.918 360.406 504.1 303.836 531.922 234.504C547.969 194.518 563.473 156.425 566.376 149.854C569.28 143.283 572.082 136.076 572.603 133.836C574.196 126.978 576.742 130.116 580.424 143.478C582.283 150.224 586.264 162.559 589.27 170.889C605.228 215.107 645.841 335.201 687.818 462.306C713.427 539.846 713.89 541.135 718.411 547.432C726.136 558.193 752.918 560.247 769.279 551.333C775.037 548.196 776.102 547.04 780.061 539.614C782.477 535.082 786.138 526.739 788.197 521.074C790.256 515.41 808.481 469.334 828.696 418.685C848.911 368.035 873.6 305.874 883.561 280.549C893.523 255.225 907.424 220.327 914.455 203C921.485 185.672 937.27 146.14 949.534 115.151C961.797 84.1611 974.216 53.4297 977.13 46.8585C983.896 31.6031 985.032 26.6714 982.718 22.594C978.733 15.5697 976.962 15.2353 941.507 14.7893C909.992 14.3919 908.818 14.4609 905.074 16.9159C899.409 20.631 893.498 31.9084 886.678 52.0156C879.562 72.9915 883.627 62.6023 833.77 187.248C798.963 274.27 780.602 321.763 762.338 372.031C760.279 377.695 758.278 382.584 757.889 382.894C754.895 385.291 749.391 371.267 746.731 354.464C745.215 344.89 736.403 317.016 713.592 249.651C707.161 230.657 698.097 202.848 693.451 187.853C675.958 131.394 642.266 33.6194 637.666 25.9613C633.075 18.3203 624.969 14.4198 612.511 13.8587C591.389 12.9076 576.185 12.7573 561.173 13.3547Z" fill="#FF931E"/>
</svg>
