<svg width="883" height="558" viewBox="0 0 883 558" fill="none" xmlns="http://www.w3.org/2000/svg">
<path fill-rule="evenodd" clip-rule="evenodd" d="M212.009 2.06373C203.787 5.79207 199.02 12.9209 192.582 31.1123C189.538 39.7137 179.623 65.6119 170.545 88.6638C161.468 111.716 144.623 154.504 133.112 183.749C121.6 212.994 96.5813 276.332 77.5136 324.5C15.9063 480.125 9.57715 508.363 8.42807 519.25C7.70499 526.09 11.2884 537.542 16.2625 544.29C18.3892 547.173 23.1887 550.526 28.9175 553.128L38.1485 557.322L217.247 557.322C421.369 557.05 475.401 556.452 480.258 554.41C486.656 551.719 490.754 547.845 495.077 540.4C500.866 530.426 510.99 505.142 513.023 495.578C514.52 488.533 514.35 487.744 510.36 483.311C503.319 475.489 502.916 475.457 421.076 476.296C380.795 476.709 298.321 477.197 237.802 477.378L136.022 477.459L130.547 474.331C127.534 472.611 124.174 469.735 123.079 467.938C121.101 464.694 115.544 467.941 125.451 441.968C130.935 427.594 149.705 380.644 167.163 337.637C184.62 294.63 208.852 233.544 221.01 201.89C233.168 170.237 258.223 116.98 269.836 87.7348C294.572 25.4402 297.125 17.6145 295.384 9.41838C294.325 4.43141 294.007 4.98943 288.401 2.46467C282.468 -0.207727 272.956 1.12538 246.465 0.40724C219.285 -0.330922 217.051 -0.223319 212.009 2.06373Z" fill="#FF931E"/>
<path fill-rule="evenodd" clip-rule="evenodd" d="M395.173 13.3547C386.625 13.6939 378.685 14.4622 377.529 15.062C368.005 19.9985 363.515 27.7425 350.765 61.2294C345.69 74.5583 335.982 98.5502 329.192 114.545C322.402 130.539 311.93 156.44 305.921 172.101C299.913 187.763 290.6 211.209 285.226 224.205C274.834 249.336 266.463 270.607 258.048 293.272C255.202 300.936 248.637 317.295 243.459 329.624C206.423 417.801 205.335 422.073 218.231 428.73C224.487 431.958 225.011 432.013 249.288 432.013C276.657 432.013 277.409 431.841 285.649 423.666C288.988 420.352 291.437 415.741 297.726 400.921C314.918 360.406 338.1 303.836 365.922 234.504C381.969 194.518 397.473 156.425 400.376 149.854C403.28 143.283 406.082 136.076 406.603 133.836C408.196 126.978 410.742 130.116 414.424 143.478C416.283 150.224 420.264 162.559 423.27 170.889C439.228 215.107 479.841 335.201 521.818 462.306C547.427 539.846 547.89 541.135 552.411 547.432C560.136 558.193 586.918 560.247 603.279 551.333C609.037 548.196 610.102 547.04 614.061 539.614C616.477 535.082 620.138 526.739 622.197 521.074C624.256 515.41 642.481 469.334 662.696 418.685C682.911 368.035 707.6 305.874 717.561 280.549C727.523 255.225 741.424 220.327 748.455 203C755.485 185.672 771.27 146.14 783.534 115.151C795.797 84.1611 808.216 53.4297 811.13 46.8585C817.896 31.6031 819.032 26.6714 816.718 22.594C812.733 15.5697 810.962 15.2353 775.507 14.7893C743.992 14.3919 742.818 14.4609 739.074 16.9159C733.409 20.631 727.498 31.9084 720.678 52.0156C713.562 72.9915 717.627 62.6023 667.77 187.248C632.963 274.27 614.602 321.763 596.338 372.031C594.279 377.695 592.278 382.584 591.889 382.894C588.895 385.291 583.391 371.267 580.731 354.464C579.215 344.89 570.403 317.016 547.592 249.651C541.161 230.657 532.097 202.848 527.451 187.853C509.958 131.394 476.266 33.6194 471.666 25.9613C467.075 18.3203 458.969 14.4198 446.511 13.8587C425.389 12.9076 410.185 12.7573 395.173 13.3547Z" fill="#FF931E"/>
</svg>
